first trial
nRows=25
nColumns=38

# SIMM Motion File Header:
name Sujet_01_velo_100.mvnx
datacolumns 38
datarows 25
otherdata 1
range 0.0000 0.4000
endheader
time pelvis_tilt  pelvis_list  pelvis_rotation  pelvis_tx  pelvis_ty  pelvis_tz  hip_flexion_r  hip_adduction_r  hip_rotation_r  knee_angle_r  ankle_angle_r  subtalar_angle_r  mtp_angle_r  hip_flexion_l  hip_adduction_l  hip_rotation_l  knee_angle_l  ankle_angle_l  subtalar_angle_l  mtp_angle_l  lumbar_extension  lumbar_bending  lumbar_rotation  arm_flex_r  arm_add_r  arm_rot_r  elbow_flex_r  pro_sup_r  wrist_flex_r  wrist_dev_r  arm_flex_l  arm_add_l  arm_rot_l  elbow_flex_l  pro_sup_l  wrist_flex_l  wrist_dev_l
0.0000	-14.5142	0.5468	-10.2036	0.0000	1.2500	-0.0000	85.4633	-17.2268	-4.4909	84.3013	7.8137	-5.1458	0.0000	50.7373	-21.9064	-23.0841	60.7589	-13.2713	20.9891	0.0000	-18.1035	1.5944	1.0803	93.4069	-17.2813	41.8736	10.9735	105.8543	-16.8863	3.6269	86.4465	-19.1850	57.8306	5.5962	102.6058	-11.5752	14.4545	
0.0170	-13.9129	1.4304	-9.8089	0.0000	1.2500	-0.0000	80.8884	-17.4146	-6.7530	77.2514	5.7425	-3.8983	0.0000	53.5968	-21.2968	-21.5346	67.3014	-12.8194	22.8691	0.0000	-18.2854	1.1666	0.7037	92.9501	-17.2847	42.0125	10.7024	105.4900	-16.8350	3.6834	86.6308	-19.0150	58.0280	5.6118	102.6449	-11.4601	14.4607	
0.0330	-13.3059	2.3075	-9.4248	0.0000	1.2500	-0.0000	76.3151	-17.4994	-9.0633	70.1757	3.6542	-2.6500	-0.0000	56.4344	-20.6188	-20.0670	74.0286	-12.3466	24.7602	0.0000	-18.4706	0.7382	0.3281	92.4937	-17.2852	42.1522	10.4327	105.1268	-16.7837	3.7397	86.8139	-18.8436	58.2242	5.6274	102.6838	-11.3450	14.4666	
0.0500	-12.7625	3.1386	-8.8330	0.0000	1.2500	-0.0000	71.4563	-17.6837	-11.4648	63.4018	1.5401	-1.6173	-0.0000	59.7244	-20.0600	-18.5166	80.4918	-11.8062	26.0694	-0.0000	-18.6462	0.3844	-0.0663	91.9872	-17.5203	42.3444	10.1815	104.7096	-16.8063	3.6991	86.9686	-18.5190	58.0899	5.7449	103.0378	-11.2737	14.5155	
0.0670	-12.2684	3.9536	-7.8754	0.0000	1.2500	-0.0000	65.9078	-18.0507	-14.2770	56.8726	-0.5060	-0.9202	0.0000	63.8250	-19.6516	-16.7997	86.7222	-11.2578	26.4395	-0.0000	-18.8281	0.1217	-0.4730	91.3825	-18.1899	42.6280	9.9637	104.1861	-16.9919	3.4829	87.1030	-17.9099	57.3637	6.0842	103.9908	-11.2980	14.6353	
0.0830	-11.8283	4.7186	-6.7075	0.0000	1.2500	-0.0000	60.0546	-18.3573	-17.3058	50.6750	-2.5623	-0.4525	-0.0000	68.3883	-19.2733	-15.0403	92.5234	-10.6667	26.2172	0.0000	-19.0016	-0.0633	-0.8991	90.7254	-19.0935	42.9605	9.7660	103.6110	-17.2529	3.1673	87.2171	-17.1439	56.3132	6.5400	105.2685	-11.3652	14.7993	
0.1000	-11.5441	5.3052	-5.5756	0.0000	1.2500	-0.0000	54.7913	-18.4316	-19.7775	45.3849	-4.8896	-0.0887	-0.0000	72.8366	-18.8893	-13.3452	97.0394	-9.8590	25.8564	-0.0000	-19.1048	-0.1431	-1.3858	90.1062	-19.8691	43.2731	9.5640	103.0901	-17.3960	2.8918	87.2669	-16.4633	55.3992	6.8608	106.3401	-11.3622	14.9675	
0.1170	-11.5035	5.6197	-4.4994	0.0000	1.2500	-0.0000	50.2279	-18.3377	-21.2614	40.9015	-7.9107	0.2353	0.0000	77.2237	-18.5544	-11.6064	99.8980	-8.7475	25.4899	0.0000	-19.0974	-0.0627	-2.0012	89.4965	-20.3700	43.5535	9.3100	102.6623	-17.3038	2.7055	87.1819	-15.9294	54.7506	6.8763	107.0110	-11.2237	15.1351	
0.1330	-11.6313	5.7687	-3.4506	0.0000	1.2500	-0.0000	46.2379	-18.2028	-22.0985	37.3241	-11.1929	0.4312	-0.0000	81.5086	-18.2093	-9.8825	101.4809	-7.3820	24.9355	-0.0000	-19.0145	0.1207	-2.6775	88.9270	-20.7451	43.8167	9.0519	102.2885	-17.0917	2.5638	87.0295	-15.4847	54.2360	6.7406	107.4654	-11.0172	15.3042	
0.1500	-11.7903	5.9255	-2.6029	0.0000	1.2500	-0.0000	43.3649	-18.1283	-22.5986	35.5318	-13.7215	0.4165	-0.0000	84.9671	-17.7650	-8.4638	102.0699	-5.7870	24.1708	0.0000	-18.9079	0.2638	-3.2513	88.5776	-21.0773	44.0373	8.9060	101.9529	-16.9147	2.4671	86.9610	-15.1987	53.9191	6.6753	107.7320	-10.8297	15.4445	
0.1670	-11.9517	6.1962	-2.0057	0.0000	1.2500	-0.0000	41.8676	-18.2205	-22.8819	35.9700	-15.1309	0.0987	-0.0000	87.4193	-17.2095	-7.3449	101.8079	-3.5931	22.9467	0.0000	-18.7797	0.3070	-3.6806	88.5812	-21.4236	44.1906	8.9521	101.6508	-16.8101	2.4238	87.0690	-15.1502	53.8870	6.7795	107.7594	-10.6766	15.5339	
0.1830	-12.1449	6.4738	-1.6092	0.0000	1.2500	-0.0000	41.4796	-18.4809	-22.8027	38.2045	-15.7999	-0.4276	-0.0000	89.0540	-16.6640	-6.4543	100.5678	-1.0741	21.4459	-0.0000	-18.6280	0.3089	-4.0073	88.8043	-21.7292	44.3013	9.1073	101.3840	-16.7411	2.4235	87.2576	-15.2614	54.0505	6.9573	107.6005	-10.5417	15.5952	
0.2000	-12.3181	6.6070	-1.4413	0.0000	1.2500	-0.0000	41.9668	-18.8318	-22.2742	41.8169	-15.8298	-0.9268	0.0000	89.7021	-16.2967	-5.9561	98.1955	0.6268	20.4350	0.0000	-18.5000	0.3039	-4.1949	89.0261	-21.9088	44.4176	9.2432	101.1455	-16.7511	2.4366	87.3943	-15.3669	54.2088	7.1389	107.4429	-10.4639	15.6666	
0.2170	-12.4659	6.5752	-1.5104	0.0000	1.2500	-0.0000	43.3982	-19.2669	-21.1836	47.0399	-14.9745	-1.3666	-0.0000	89.2879	-16.1443	-5.7879	94.4274	0.9256	20.2934	0.0000	-18.3933	0.2738	-4.2230	89.1498	-21.9762	44.5747	9.3289	100.8812	-16.9315	2.4508	87.3865	-15.3857	54.2711	7.3514	107.3991	-10.4858	15.7718	
0.2330	-12.5948	6.3968	-1.8101	0.0000	1.2500	-0.0000	45.7340	-19.7313	-19.6227	53.6387	-13.4761	-1.7493	0.0000	87.8939	-16.1837	-5.9948	89.4816	0.2668	20.7418	0.0000	-18.3104	0.2378	-4.1121	89.2724	-21.9169	44.7374	9.3947	100.6447	-17.1910	2.4782	87.3262	-15.3987	54.3285	7.5667	107.3574	-10.5640	15.8890	
0.2500	-12.6685	5.9782	-2.3465	0.0000	1.2500	-0.0000	48.5695	-20.0679	-17.8376	60.4908	-12.1573	-1.8736	-0.0000	85.5878	-16.4666	-6.9234	83.9206	-1.0492	21.6345	0.0000	-18.3065	0.2858	-3.8876	89.4628	-21.6027	44.8475	9.4052	100.5900	-17.2991	2.5271	87.3562	-15.4831	54.4530	7.6297	107.1658	-10.6090	15.9872	
0.2670	-12.6519	5.1676	-3.1505	0.0000	1.2500	-0.0000	51.8447	-20.1546	-15.8213	67.4598	-11.3823	-1.5507	0.0000	82.2314	-16.9903	-8.9918	77.6625	-3.1250	23.1694	0.0000	-18.4268	0.5065	-3.5548	89.7774	-20.8892	44.8803	9.3066	100.8181	-17.1120	2.6028	87.6049	-15.6543	54.6877	7.3963	106.7247	-10.5738	16.0645	
0.2830	-12.5623	4.1194	-4.1891	0.0000	1.2500	-0.0000	55.6140	-20.0359	-13.6698	74.6889	-10.7888	-0.9515	-0.0000	77.9536	-17.6063	-11.9051	70.7791	-5.7869	25.0619	0.0000	-18.6316	0.8063	-3.1066	90.1530	-19.9200	44.8498	9.1549	101.2288	-16.7736	2.6989	87.9442	-15.8960	54.9920	7.0110	106.1351	-10.5056	16.1222	
0.3000	-12.4491	3.1995	-5.3730	0.0000	1.2500	-0.0000	59.6267	-19.8666	-11.7694	81.4742	-10.1057	-0.4355	0.0000	73.2185	-18.1644	-14.9259	64.1163	-8.3533	26.4945	-0.0000	-18.8452	1.0032	-2.5515	90.4823	-18.9983	44.7620	9.0782	101.6747	-16.4846	2.8083	88.1327	-16.2381	55.3115	6.7509	105.5421	-10.4566	16.1323	
0.3170	-12.3098	2.5072	-6.7512	0.0000	1.2500	-0.0000	63.9225	-19.7131	-10.2571	87.7914	-9.3874	-0.1384	0.0000	67.8748	-18.6091	-18.0355	57.8039	-10.5639	27.1464	0.0000	-19.0697	1.0279	-1.8400	90.7370	-18.2214	44.6493	9.1415	102.0941	-16.3292	2.9273	88.0772	-16.7400	55.6712	6.7553	104.9516	-10.4602	16.0683	
0.3330	-12.1505	1.9454	-8.2747	0.0000	1.2500	-0.0000	68.4386	-19.5076	-9.0290	93.6472	-8.5754	0.0641	0.0000	62.0718	-18.8414	-21.3093	51.7485	-12.7179	27.3728	-0.0000	-19.2986	0.9484	-1.0245	90.9488	-17.4928	44.4859	9.2769	102.5475	-16.2228	3.0605	87.8729	-17.3418	56.0453	6.8852	104.3550	-10.4831	15.9563	
0.3500	-12.0522	1.5797	-9.7133	0.0000	1.2500	-0.0000	72.7805	-19.2571	-8.0192	98.3841	-7.2252	0.1974	-0.0000	56.7098	-18.8745	-24.0411	46.5011	-15.0280	27.4269	0.0000	-19.4384	0.7968	-0.2685	91.1069	-16.8252	44.2025	9.4140	103.0716	-16.1128	3.2149	87.5572	-17.8947	56.3000	6.9982	103.8730	-10.4784	15.8477	
0.3670	-12.0584	1.5340	-11.0638	0.0000	1.2500	-0.0000	77.0140	-18.9840	-7.2445	101.8304	-4.9820	0.3136	-0.0000	51.8246	-18.8700	-25.8122	41.9716	-17.9363	27.3281	-0.0000	-19.4339	0.5288	0.3891	91.1520	-16.1505	43.7123	9.5012	103.7510	-15.9765	3.3997	87.0305	-18.3579	56.3311	7.0406	103.5667	-10.4208	15.7645	
0.3830	-12.1429	1.6776	-12.3324	0.0000	1.2500	-0.0000	81.0714	-18.6909	-6.6505	104.1629	-2.2038	0.3976	-0.0000	47.3394	-18.8510	-26.9711	38.2422	-21.0131	27.0167	-0.0000	-19.3388	0.1967	0.9898	91.1510	-15.5338	43.1109	9.6017	104.5052	-15.8374	3.6062	86.3869	-18.7710	56.2373	7.0654	103.3750	-10.3352	15.6856	
0.4000	-12.2764	1.6912	-13.3034	0.0000	1.2500	-0.0000	84.3875	-18.4020	-5.9846	105.2568	0.4829	0.3347	0.0000	43.9804	-18.8335	-27.9120	36.1382	-23.1470	26.6969	0.0000	-19.2253	-0.0213	1.4899	91.2781	-15.1890	42.5986	9.8076	105.1225	-15.7116	3.8150	85.9540	-19.1082	56.1920	7.0904	103.2366	-10.2487	15.5977	
